<?xml version="1.0" encoding="UTF-8"?><svg id="Layer_1" xmlns="http://www.w3.org/2000/svg" viewBox="0 0 52.85 63.67"><defs><style>.cls-1{fill:#f2f2f2;}</style></defs><g><path d="M19.41,4.4v-1.69c0-1.22,.99-2.2,2.2-2.2h10.66c1.22,0,2.2,.99,2.2,2.2v1.69h-15.07Z"/><path d="M32.27,1c.94,0,1.7,.76,1.7,1.7v1.19h-14.07v-1.19c0-.94,.76-1.7,1.7-1.7h10.66m0-1h-10.66c-1.49,0-2.7,1.21-2.7,2.7v2.19h16.07V2.7c0-1.49-1.21-2.7-2.7-2.7h0Z"/></g><g><rect x=".5" y="3.95" width="51.85" height="6.59" rx="2.64" ry="2.64"/><path d="M49.71,4.45c1.18,0,2.14,.96,2.14,2.14v1.3c0,1.18-.96,2.14-2.14,2.14H3.14c-1.18,0-2.14-.96-2.14-2.14v-1.3c0-1.18,.96-2.14,2.14-2.14H49.71m0-1H3.14c-1.74,0-3.14,1.41-3.14,3.14v1.3c0,1.74,1.41,3.14,3.14,3.14H49.71c1.74,0,3.14-1.41,3.14-3.14v-1.3c0-1.74-1.41-3.14-3.14-3.14h0Z"/></g><g><path d="M15.03,63.17c-3.35,0-6.13-2.51-6.47-5.84L4.11,13.81H49.78l-4.45,43.52c-.34,3.33-3.12,5.84-6.47,5.84H15.03Z"/><path d="M49.23,14.31l-4.39,42.97c-.31,3.08-2.88,5.39-5.97,5.39H15.03c-3.09,0-5.66-2.32-5.97-5.39L4.66,14.31H49.23m1.11-1H3.55l4.51,44.07c.37,3.57,3.38,6.29,6.97,6.29h23.83c3.59,0,6.6-2.72,6.97-6.29l4.51-44.07h0Z"/></g><path class="cls-1" d="M37.88,45.5c0,.66-.25,1.31-.75,1.81-1,1-2.62,1-3.63,0l-6.55-6.55-6.55,6.55c-1,1-2.63,1-3.64,0-.5-.5-.75-1.16-.75-1.81s.25-1.32,.75-1.82l6.55-6.55-6.06-6.05c-.5-.5-.75-1.16-.75-1.82s.25-1.31,.75-1.81c1.01-1,2.63-1,3.64,0l6.06,6.06,6.05-6.06c1-1,2.63-1,3.64,0,.5,.5,.75,1.16,.75,1.81s-.25,1.32-.75,1.82l-6.05,6.06,6.54,6.54c.5,.5,.75,1.16,.75,1.82Z"/></svg>